# xmcd CD database file
#
# Track frame offsets:
#	182
#	16832
#	32567
#	54985
#	69590
#	88865
#	129932
#	147832
#	174472
#
# Disc length: 2496 seconds
#
# Revision: 6
# Processed by: cddbd v1.5.2PL0 Copyright (c) Steve Scherf et al.
# Submitted via: CDex 1.51
#
DISCID=6e09be09
DTITLE=Albert King - New Orleans Heat
DYEAR=1978
DGENRE=Blues
TTITLE0=Get Out Of My Life Woman
TTITLE1=Born Under A Bad Sign
TTITLE2=The Feeling
TTITLE3=We All Wanna Boogie
TTITLE4=The Very Thought Of You
TTITLE5=I Got The Blues
TTITLE6=I Get Evil
TTITLE7=Angel Of Mercy
TTITLE8=Flat Tire
EXTD=YEAR: 1978
EXTT0=
EXTT1=
EXTT2=
EXTT3=
EXTT4=
EXTT5=
EXTT6=
EXTT7=
EXTT8=
PLAYORDER=
